<svg width="33" height="24" viewBox="0 0 33 24" fill="none" xmlns="http://www.w3.org/2000/svg">
<g clip-path="url(#clip0_0_71)">
<path d="M5.86801 0.5C5.02801 0.5 4.75813 1.21036 4.75813 1.21036L2.93361 6.25438V4.69131H0V6.64496H2.77551L2.57669 7.14286C2.31479 7.85822 1.50673 7.88827 1.50673 7.88827H1.26878C0.428783 7.88827 0.435968 8.63439 0.435968 8.63439V11.5473C0.435968 12.2999 1.18893 12.2928 1.18893 12.2928C1.93232 12.2928 1.9427 13.0746 1.9427 13.0746V13.1455C1.9427 13.2842 1.92673 13.3729 1.98262 13.4652H1.74467C1.74467 13.4652 0.872736 13.4938 0.872736 14.2464V23.0561C0.872736 23.0561 0.904674 23.8015 1.74467 23.8015H4.91622C4.91622 23.8015 5.74983 23.8094 5.74904 23.0561V20.0723H11.3392V20.214C11.3392 20.214 11.3232 20.9601 12.172 20.9601H20.9345C20.9345 20.9601 21.7673 20.9672 21.7673 20.214C21.7673 20.214 21.7433 20.1532 21.7274 20.0723H27.1985V23.0554C27.1985 23.0554 27.1826 23.8015 28.0313 23.8015H31.2428C31.2428 23.8015 32.0748 23.8094 32.0748 23.0561V14.2464C32.0748 14.2464 32.0748 13.4652 31.2428 13.4652H31.044C31.1326 13.2885 31.1238 13.1455 31.1238 13.1455V12.9681C31.1238 12.2155 31.6389 12.2219 31.6389 12.2219C32.1459 12.2219 32.1148 11.4758 32.1148 11.4758V7.99557C32.1148 7.24301 31.2819 7.24945 31.2819 7.24945H31.0839C30.4507 7.24945 30.1625 6.8467 30.0539 6.64568H32.8685V4.69274H29.9341V6.32591L28.1503 1.21107C27.8988 0.493564 27.0404 0.500718 27.0404 0.500718H5.86721L5.86801 0.5ZM7.05774 2.7026H25.295L26.4847 6.60991H5.94786L7.05774 2.7026ZM7.73086 8.56357C8.6012 8.56357 9.31743 9.20525 9.31743 9.98428C9.31743 10.7633 8.6012 11.3692 7.73086 11.3692C6.86212 11.3692 6.14508 10.7633 6.14508 9.98428C6.14508 9.20453 6.86212 8.56357 7.73086 8.56357ZM25.0578 8.56357C25.9282 8.56357 26.6037 9.20525 26.6037 9.98428C26.6062 10.1669 26.568 10.348 26.4912 10.5172C26.4143 10.6863 26.3005 10.8399 26.1564 10.969C26.0122 11.0981 25.8407 11.2 25.6519 11.2687C25.4631 11.3374 25.2608 11.3716 25.057 11.3692C24.1883 11.3692 23.4712 10.7633 23.4712 9.98428C23.4712 9.20453 24.1883 8.56357 25.057 8.56357H25.0578ZM2.41859 9.20239H4.67828V10.7304H2.41859V9.20239ZM28.2294 9.20239H30.4891V10.7304H28.2294V9.20239Z" fill="black"/>
</g>
<defs>
<clipPath id="clip0_0_71">
<rect width="33" height="23" fill="white" transform="translate(0 0.5)"/>
</clipPath>
</defs>
</svg>
