<svg width="36" height="29" viewBox="0 0 36 29" fill="none" xmlns="http://www.w3.org/2000/svg">
<path d="M36 3.85459C34.647 4.4154 33.2162 4.78613 31.752 4.95524C33.2967 4.07355 34.4543 2.68649 35.01 1.05136C33.5584 1.87696 31.9694 2.45864 30.312 2.77113C29.2042 1.62331 27.7289 0.859255 26.1177 0.598804C24.5064 0.338353 22.8502 0.596236 21.4088 1.33201C19.9675 2.06778 18.8225 3.23982 18.1534 4.66432C17.4844 6.08882 17.3291 7.68519 17.712 9.20308C14.777 9.06124 11.906 8.33108 9.28558 7.06001C6.66516 5.78894 4.35392 4.0054 2.502 1.82526C1.85245 2.909 1.51113 4.13633 1.512 5.38519C1.5097 6.54497 1.80759 7.6873 2.37916 8.71048C2.95073 9.73365 3.77823 10.6059 4.788 11.2496C3.61436 11.2191 2.46579 10.9182 1.44 10.3725V10.4585C1.4488 12.0835 2.04479 13.6557 3.12717 14.9092C4.20954 16.1627 5.71186 17.0205 7.38 17.3376C6.73786 17.5243 6.07117 17.6228 5.4 17.63C4.9354 17.6248 4.47196 17.5845 4.014 17.5096C4.48904 18.9074 5.40832 20.129 6.64393 21.0044C7.87955 21.8798 9.37004 22.3654 10.908 22.3937C8.31097 24.3461 5.10459 25.4117 1.8 25.4205C1.19832 25.4224 0.597124 25.388 0 25.3173C3.37397 27.3987 7.30586 28.5036 11.322 28.4989C14.0934 28.5264 16.8428 28.026 19.4096 27.0269C21.9764 26.0279 24.309 24.5501 26.2714 22.6801C28.2337 20.81 29.7863 18.5851 30.8386 16.1353C31.8909 13.6855 32.4217 11.06 32.4 8.41198C32.4 8.11962 32.4 7.81006 32.4 7.50051C33.8125 6.49411 35.0307 5.26037 36 3.85459Z" fill="black"/>
</svg>
