<svg width="36" height="35" viewBox="0 0 36 35" fill="none" xmlns="http://www.w3.org/2000/svg">
<path d="M34.02 0H1.98C1.45487 0 0.951251 0.202812 0.579929 0.56382C0.208607 0.924827 0 1.41446 0 1.925V33.075C0 33.3278 0.0512144 33.5781 0.150719 33.8117C0.250223 34.0452 0.396069 34.2574 0.579929 34.4362C0.763789 34.6149 0.982062 34.7567 1.22229 34.8535C1.46251 34.9502 1.71998 35 1.98 35H19.224V21.4375H14.544V16.1875H19.224V12.25C19.1271 11.3256 19.2393 10.3917 19.5529 9.51394C19.8665 8.63616 20.3738 7.8357 21.0392 7.16872C21.7047 6.50174 22.5122 5.98437 23.4051 5.65292C24.298 5.32146 25.2547 5.18394 26.208 5.25C27.609 5.24162 29.0093 5.31173 30.402 5.46V10.185H27.54C25.272 10.185 24.84 11.235 24.84 12.7575V16.135H30.24L29.538 21.385H24.84V35H34.02C34.28 35 34.5375 34.9502 34.7777 34.8535C35.0179 34.7567 35.2362 34.6149 35.4201 34.4362C35.6039 34.2574 35.7498 34.0452 35.8493 33.8117C35.9488 33.5781 36 33.3278 36 33.075V1.925C36 1.67221 35.9488 1.42189 35.8493 1.18833C35.7498 0.954783 35.6039 0.742572 35.4201 0.56382C35.2362 0.385067 35.0179 0.243272 34.7777 0.146532C34.5375 0.0497918 34.28 0 34.02 0Z" fill="black"/>
</svg>
