<svg width="34" height="35" viewBox="0 0 34 35" fill="none" xmlns="http://www.w3.org/2000/svg">
<path d="M31.4859 0.0002447H2.51408C2.18841 -0.00438332 1.86504 0.056677 1.56244 0.179939C1.25983 0.303201 0.983919 0.486249 0.750458 0.718631C0.516998 0.951012 0.330562 1.22818 0.201797 1.53429C0.0730323 1.8404 0.00446104 2.16948 0 2.50271V32.4973C0.00446104 32.8305 0.0730323 33.1596 0.201797 33.4657C0.330562 33.7718 0.516998 34.049 0.750458 34.2814C0.983919 34.5137 1.25983 34.6968 1.56244 34.8201C1.86504 34.9433 2.18841 35.0044 2.51408 34.9998H31.4859C31.8116 35.0044 32.135 34.9433 32.4376 34.8201C32.7402 34.6968 33.0161 34.5137 33.2495 34.2814C33.483 34.049 33.6694 33.7718 33.7982 33.4657C33.927 33.1596 33.9955 32.8305 34 32.4973V2.50271C33.9955 2.16948 33.927 1.8404 33.7982 1.53429C33.6694 1.22818 33.483 0.951012 33.2495 0.718631C33.0161 0.486249 32.7402 0.303201 32.4376 0.179939C32.135 0.056677 31.8116 -0.00438332 31.4859 0.0002447ZM10.3129 29.2948H5.18209V13.5451H10.3129V29.2948ZM7.74748 11.3401C7.03989 11.3401 6.36127 11.0525 5.86092 10.5405C5.36057 10.0285 5.07948 9.33416 5.07948 8.61012C5.07948 7.88609 5.36057 7.19172 5.86092 6.67975C6.36127 6.16778 7.03989 5.88016 7.74748 5.88016C8.12322 5.83656 8.50372 5.87466 8.86407 5.99196C9.22442 6.10926 9.55649 6.30311 9.83855 6.56084C10.1206 6.81856 10.3463 7.13433 10.5008 7.48748C10.6553 7.84063 10.7352 8.2232 10.7352 8.61012C10.7352 8.99705 10.6553 9.37961 10.5008 9.73276C10.3463 10.0859 10.1206 10.4017 9.83855 10.6594C9.55649 10.9171 9.22442 11.111 8.86407 11.2283C8.50372 11.3456 8.12322 11.3837 7.74748 11.3401ZM28.8179 29.2948H23.6871V20.8425C23.6871 18.725 22.9517 17.3425 21.0875 17.3425C20.5106 17.3468 19.9488 17.532 19.4779 17.873C19.007 18.2141 18.6495 18.6947 18.4537 19.25C18.3199 19.6613 18.2619 20.0945 18.2827 20.5275V29.2773H13.1519C13.1519 29.2773 13.1519 14.9625 13.1519 13.5276H18.2827V15.75C18.7488 14.9225 19.4267 14.2407 20.2434 13.7782C21.0601 13.3156 21.9847 13.0898 22.9175 13.1251C26.338 13.1251 28.8179 15.3825 28.8179 20.23V29.2948Z" fill="black"/>
</svg>
